<svg width="4913" height="1512" xmlns="http://www.w3.org/2000/svg" xmlns:xlink="http://www.w3.org/1999/xlink" overflow="hidden"><defs><clipPath id="clip0"><rect x="0" y="0" width="4913" height="1512"/></clipPath><clipPath id="clip1"><rect x="239" y="0" width="1513" height="871"/></clipPath><clipPath id="clip2"><rect x="239" y="0" width="1513" height="871"/></clipPath><clipPath id="clip3"><rect x="239" y="-678" width="1513" height="1549"/></clipPath><clipPath id="clip4"><path d="M731.907 257.908 1047.97 112.611 1068.97 158.194 752.904 303.491Z"/></clipPath><clipPath id="clip5"><path d="M731.907 257.908 1047.97 112.611 1068.97 158.194 752.904 303.491Z"/></clipPath><clipPath id="clip6"><path d="M731.907 257.908 1047.97 112.611 1068.97 158.194 752.904 303.491Z"/></clipPath><clipPath id="clip7"><path d="M393.651 413.919 709.714 268.604 730.693 314.186 414.63 459.502Z"/></clipPath><clipPath id="clip8"><path d="M393.651 413.919 709.714 268.604 730.693 314.186 414.63 459.502Z"/></clipPath><clipPath id="clip9"><path d="M393.651 413.919 709.714 268.604 730.693 314.186 414.63 459.502Z"/></clipPath><clipPath id="clip10"><path d="M393.651 413.919 709.714 268.604 730.693 314.186 414.63 459.502Z"/></clipPath><clipPath id="clip11"><path d="M393.651 413.919 709.714 268.604 730.693 314.186 414.63 459.502Z"/></clipPath><clipPath id="clip12"><path d="M1229.47 302.613 911.954 160.546 932.466 114.758 1250 256.825Z"/></clipPath><clipPath id="clip13"><path d="M1229.47 302.613 911.954 160.546 932.466 114.758 1250 256.825Z"/></clipPath><clipPath id="clip14"><path d="M1229.47 302.613 911.954 160.546 932.466 114.758 1250 256.825Z"/></clipPath><clipPath id="clip15"><path d="M1569.69 454.35 1252.15 312.282 1272.68 266.476 1590.2 408.562Z"/></clipPath><clipPath id="clip16"><path d="M1569.69 454.35 1252.15 312.282 1272.68 266.476 1590.2 408.562Z"/></clipPath><clipPath id="clip17"><path d="M1569.69 454.35 1252.15 312.282 1272.68 266.476 1590.2 408.562Z"/></clipPath><clipPath id="clip18"><path d="M1569.69 454.35 1252.15 312.282 1272.68 266.476 1590.2 408.562Z"/></clipPath><clipPath id="clip19"><path d="M1569.69 454.35 1252.15 312.282 1272.68 266.476 1590.2 408.562Z"/></clipPath><clipPath id="clip20"><rect x="924" y="-73" width="143" height="143"/></clipPath><clipPath id="clip21"><rect x="924" y="724" width="146" height="147"/></clipPath><clipPath id="clip22"><rect x="3161" y="842" width="1513" height="671"/></clipPath><clipPath id="clip23"><rect x="3161" y="842" width="1513" height="671"/></clipPath><clipPath id="clip24"><rect x="3161" y="842" width="1513" height="1549"/></clipPath></defs><g clip-path="url(#clip0)"><rect x="0" y="0" width="4913" height="1512.27" fill="#44546A"/><g clip-path="url(#clip1)"><g clip-path="url(#clip2)"><g clip-path="url(#clip3)"><g><path d="M847.231 173.952C846.428 180.016 847.082 186.099 848.401 191.695 850.102 198.93 853.103 206.159 858.58 212.056 860.343 213.958 862.565 215.908 865.035 217.795L266.383 486.137 856.726 750.757C850.786 757.834 844.827 767.845 842.581 774.946 840.22 782.42 840.804 789.148 842.447 796.191L241.611 526.841C242.792 525.99 243.934 525.058 245.023 524.045 251.756 517.795 259.134 506.006 261.753 497.138 264.065 489.301 263.473 481.168 261.753 473.866 260.047 466.632 256.291 459.196 251.57 453.505 249.013 450.423 246.06 447.46 242.725 444.947ZM234.052 1234.38C226.038 1232.01 215.21 1231.45 207.693 1232.39 200.43 1233.3 194.605 1234.8 188.785 1239.66 188.13 1240.21 187.456 1240.82 186.773 1241.49L186.773 526.334C192.106 529.832 197.988 532.785 202.843 534.228 210.326 536.45 217.685 535.882 224.662 534.228 227.787 533.488 230.969 532.484 234.052 531.127ZM854.819 1552.06C850.136 1558.44 845.902 1566.03 844.034 1572.01 841.42 1580.41 842.251 1589.12 844.034 1596.74 844.234 1597.61 844.454 1598.47 844.693 1599.32L243.164 1329.66C244.435 1328.91 245.702 1328.01 246.963 1326.93 254.356 1320.61 265.145 1305.72 268.056 1295.66 268.648 1293.6 268.997 1291.55 269.155 1289.51ZM872.323 833.239C876.408 835.423 880.489 837.177 884.035 838.218 892.11 840.584 900.004 839.939 907.306 838.218 911.492 837.229 915.678 835.815 919.601 833.731L919.601 1542.04C917.155 1540.36 914.522 1538.93 911.669 1537.83 903.55 1534.71 890.992 1533.86 882.582 1534.92 878.845 1535.39 875.491 1536.02 872.323 1537.17ZM1525.3 1288.38C1525.55 1289.85 1525.85 1291.3 1526.2 1292.75 1527.88 1299.84 1530.9 1307.22 1536.38 1313.11 1540.91 1317.99 1548.25 1323.19 1555.4 1326.69L939.9 1602.61C940.536 1601.09 941.071 1599.6 941.487 1598.19 943.8 1590.36 943.303 1582.52 941.487 1574.92 939.848 1568.07 936.221 1560.38 931.935 1554.37ZM1557.87 527.672C1561.8 529.913 1565.74 531.744 1569.1 532.776 1576.69 535.098 1583.94 534.429 1590.92 532.776 1595.72 531.634 1600.64 529.885 1605.15 527.18L1605.15 1241.95C1601.12 1239.13 1596.7 1236.75 1592.38 1235.3 1583.99 1232.48 1572.85 1232.61 1564.74 1233.84 1562.33 1234.21 1560.05 1234.6 1557.87 1235.15ZM1525.54 486.137 928.007 218.287C934.649 211.956 941.821 200.411 944.397 191.695 946.103 185.913 946.227 179.964 945.486 174.311L1549.3 444.99C1549.11 445.162 1548.93 445.334 1548.74 445.506 1542.01 451.756 1534.63 463.545 1532.02 472.413 1529.7 480.25 1530.46 488.522 1532.02 495.685 1533.5 502.532 1535.62 508.878 1540.74 514.593 1543.85 518.058 1548.68 521.909 1553.87 525.245L945.142 798.136C946.447 791.685 945.831 785.354 944.397 779.309 942.715 772.218 939.384 765.088 934.214 758.948 932.718 757.17 930.984 755.325 929.077 753.51Z" fill="#FFFFFF" transform="matrix(1.0008 0 0 1 98.9773 -785.805)"/></g><path d="M849.601 174.268C848.798 180.045 849.434 185.698 850.728 191.15 852.367 198.198 855.082 204.888 860.333 210.431 862.006 212.247 864.08 214.058 866.488 215.898L869.68 218.33 272.222 486.137 860.596 749.873 858.556 752.291C852.726 759.215 846.992 768.815 844.86 775.668 842.548 782.678 843.159 788.775 844.774 795.647L845.878 800.349 236.847 527.323 240.216 524.901C241.339 524.093 242.366 523.257 243.398 522.296 249.931 516.285 256.974 505.036 259.459 496.459 261.729 489.048 261.117 481.531 259.426 474.416 257.82 467.444 254.303 460.496 249.73 455.029 247.25 452.028 244.493 449.257 241.286 446.853L238.046 444.426 850.189 170.01ZM247.216 445.553C249.486 447.57 250.776 448.817 253.409 451.981 258.279 457.896 262.274 465.819 264.08 473.317 264.854 476.642 265.399 480.217 265.561 483.887L860.52 217.203C859.158 216.027 858.68 215.669 856.831 213.681 851.125 207.431 847.837 199.661 846.074 192.244 844.731 186.501 844.378 182.773 844.54 177.78ZM265.552 488.383C265.403 491.532 264.93 494.71 264.046 497.816 261.294 506.977 253.581 519.305 246.648 525.794 246.399 526.024 246.246 526.172 246.151 526.258L839.227 792.13C838.347 786.381 837.893 782.162 840.302 774.224 842.662 766.875 847.551 758.675 852.931 751.675ZM233.373 1236.67C225.637 1234.35 215.296 1233.83 207.99 1234.76 200.874 1235.64 195.671 1236.87 190.319 1241.49 189.702 1242.01 189.091 1242.56 188.441 1243.2L184.384 1247.15 184.384 521.905 188.082 524.337C193.296 527.768 198.863 530.573 203.522 531.939 210.575 534.114 217.317 533.526 224.112 531.901 227.151 531.184 230.128 530.253 233.091 528.939L236.441 527.457 236.441 1237.59ZM231.662 534.644C229.502 535.418 228.423 535.791 225.211 536.555 218.053 538.238 210.078 538.787 202.165 536.517 197.114 534.998 193.597 533.191 189.162 530.616L189.162 1235.84C189.162 1235.84 186.558 1238.41 187.251 1237.83 193.539 1232.73 199.986 1230.96 207.397 1230.02 215.124 1229.07 223.806 1229.55 231.662 1231.3ZM856.745 1553.47C852.143 1559.73 848.086 1566.97 846.313 1572.72 843.752 1580.66 844.602 1588.74 846.361 1596.2 846.557 1597.04 846.762 1597.85 846.992 1598.68L848.377 1603.59 237.97 1329.96 241.946 1327.61C243.136 1326.91 244.235 1326.13 245.41 1325.12 252.611 1319 263.029 1304.69 265.762 1294.99 266.321 1293.07 266.627 1291.26 266.77 1289.32L267.023 1285.94 858.498 1551.09ZM271.109 1293C270.913 1294.12 270.975 1294.13 270.349 1296.32 267.262 1306.75 256.1 1322.22 248.516 1328.75 248.263 1328.96 248.091 1329.11 247.976 1329.21L841.014 1595.05C841.014 1595.05 841.912 1598.17 841.707 1597.28 839.896 1589.5 839.088 1580.17 841.754 1571.3 843.718 1565.09 847.102 1559.03 851.192 1553.05ZM873.45 831.132C877.445 833.273 881.297 834.931 884.708 835.925 892.349 838.247 899.632 837.588 906.757 835.891 910.833 834.935 914.737 833.626 918.478 831.619L921.99 829.741 921.99 1546.59 918.249 1544.01C915.907 1542.39 913.523 1541.09 910.809 1540.06 903.039 1537.01 891.059 1536.24 882.878 1537.29 879.213 1537.75 876.121 1538.31 873.14 1539.42L869.933 1540.61 869.933 829.249ZM874.712 1533.94C877.13 1533.31 878.477 1533.03 882.286 1532.55 890.925 1531.49 904.061 1532.4 912.529 1535.6 915.52 1536.77 915.707 1536.96 917.212 1537.78L917.212 837.506C914.139 838.811 912.151 839.523 907.856 840.545 900.377 842.29 891.871 842.92 883.361 840.512 879.682 839.422 877.732 838.548 874.712 837.115ZM1527.66 1287.99C1527.89 1289.41 1528.18 1290.78 1528.52 1292.2 1530.15 1299.12 1532.88 1305.95 1538.13 1311.49 1542.48 1316.2 1549.47 1321.14 1556.45 1324.55L1561.04 1326.78 935.356 1607.26 937.697 1601.69C938.309 1600.22 938.801 1598.86 939.193 1597.51 941.463 1590.09 940.947 1582.87 939.164 1575.48 937.607 1568.86 934.166 1561.59 929.99 1555.76L928.289 1553.39 1527.15 1284.93ZM935.499 1555.4C939.198 1561.19 942.089 1567.29 943.809 1574.37 945.658 1582.16 946.136 1590.62 943.781 1598.87 943.341 1600.34 944.43 1597.96 944.43 1597.96L1549.99 1326.5C1544.11 1323.09 1539.34 1319.78 1534.63 1314.74 1528.92 1308.48 1525.61 1300.57 1523.87 1293.3 1523.52 1291.82 1523.64 1292.3 1523.53 1291.79ZM1559.06 525.598C1562.9 527.792 1566.6 529.517 1569.8 530.492 1576.92 532.766 1583.56 532.078 1590.37 530.453 1595.04 529.345 1599.63 527.734 1603.92 525.13L1607.54 522.937 1607.54 1246.56 1603.78 1243.91C1599.87 1241.16 1595.76 1238.93 1591.62 1237.56 1583.62 1234.81 1573.05 1234.98 1565.1 1236.2 1562.71 1236.57 1560.55 1236.94 1558.46 1237.47L1555.48 1238.22 1555.48 527.142 941.836 802.236 942.801 797.663C944.086 791.566 943.479 785.745 942.07 779.858 940.469 772.996 937.387 766.364 932.384 760.486 930.936 758.756 929.287 757.008 927.428 755.239L924.848 752.788 1519.7 486.137 923.768 219.004 926.358 216.557C932.809 210.46 939.661 199.441 942.103 191.016 943.761 185.55 943.847 180.093 943.116 174.621L942.552 170.378 1553.63 444.311 1550.9 446.767C1550.72 446.925 1550.55 447.083 1550.37 447.255 1543.83 453.266 1536.79 464.515 1534.31 473.087 1532.04 480.48 1532.81 488.159 1534.35 495.178 1535.8 501.902 1537.64 507.703 1542.52 512.997 1545.48 516.328 1550.07 519.969 1555.16 523.233L1557.15 524.509ZM1560.26 1232.18C1561.61 1231.92 1561.94 1231.85 1564.38 1231.48 1572.66 1230.23 1584.36 1230.16 1593.14 1233.03 1597.65 1234.56 1599.63 1235.7 1602.76 1237.57L1602.76 531.161C1599.05 532.929 1596.4 533.923 1591.47 535.098 1584.33 536.78 1576.45 537.43 1568.4 535.06 1564.89 533.97 1563.11 533.101 1560.26 531.662ZM1528.24 484.728C1528.12 480.437 1528.51 476.012 1529.72 471.74 1532.47 462.575 1544.98 445.668 1544.98 445.668L948.224 178.157C948.444 182.812 948.444 186.276 946.691 192.373 943.981 201.381 938.18 210.661 932.078 217.494ZM1528.38 487.48 933.22 754.269C934.233 755.33 934.501 755.583 936.039 757.409 941.382 763.812 944.961 771.434 946.724 778.759 948.181 784.962 948.497 788.88 948.081 794.199L1548.99 524.815C1545.06 522.005 1542.21 519.788 1538.96 516.189 1533.6 510.054 1531.2 503.163 1529.68 496.191 1529.09 493.468 1528.62 490.529 1528.38 487.48Z" fill="#FFFFFF" transform="matrix(1.0008 0 0 1 98.9773 -785.805)"/><path d="M895.962 268.624C897.644 268.61 899.441 268.763 901.113 269.078 902.747 269.403 904.453 269.895 906.03 270.531 907.602 271.166 909.179 271.998 910.584 272.911 912.013 273.847 913.408 274.984 914.598 276.16 915.793 277.345 916.959 278.731 917.91 280.117 918.841 281.512 919.702 283.089 920.371 284.656 921.006 286.195 921.541 287.91 921.885 289.554 922.22 291.212 922.411 292.995 922.421 294.686 922.435 296.383 922.263 298.16 921.947 299.804 921.622 301.467 921.102 303.202 920.49 304.755 919.84 306.317 918.985 307.908 918.077 309.323 917.135 310.718 916.013 312.099 914.832 313.303 913.633 314.498 912.261 315.63 910.861 316.577 909.471 317.518 907.884 318.373 906.341 319.023 904.764 319.683 903.053 320.199 901.424 320.538 899.761 320.877 897.978 321.049 896.301 321.059 894.61 321.068 892.813 320.896 891.155 320.562 889.492 320.237 887.781 319.721 886.228 319.085 884.67 318.435 883.084 317.599 881.669 316.658 880.26 315.721 878.869 314.57 877.675 313.399 876.504 312.204 875.376 310.838 874.425 309.433 873.489 308.023 872.638 306.437 871.979 304.884 871.343 303.321 870.827 301.61 870.478 299.957 870.167 298.308 869.995 296.54 869.986 294.858 869.976 293.162 870.148 291.389 870.464 289.76 870.789 288.116 871.305 286.391 871.921 284.852 872.571 283.285 873.412 281.708 874.33 280.308 875.247 278.936 876.37 277.541 877.555 276.341 878.735 275.171 880.097 274.029 881.507 273.073 882.883 272.165 884.441 271.31 885.989 270.66 887.552 269.996 889.267 269.48 890.901 269.135 892.531 268.82 895.532 268.667 895.532 268.667 895.632 268.653 896.349 273.374 896.449 273.36 896.449 273.36 893.267 273.541 891.828 273.823 890.409 274.115 889.172 274.487 887.858 275.056 886.539 275.601 885.358 276.241 884.159 277.049 882.96 277.847 881.961 278.688 880.938 279.72 879.92 280.723 879.103 281.751 878.305 282.955 877.507 284.164 876.886 285.32 876.341 286.668 875.801 288.001 875.424 289.263 875.151 290.677 874.87 292.072 874.741 293.382 874.764 294.82 874.76 296.273 874.884 297.611 875.166 299.025 875.457 300.463 875.835 301.711 876.394 303.058 876.963 304.41 877.579 305.567 878.391 306.771 879.199 307.98 880.035 308.988 881.067 310.035 882.104 311.062 883.108 311.894 884.312 312.677 885.506 313.49 886.696 314.116 888.049 314.665 889.372 315.219 890.643 315.602 892.072 315.874 893.477 316.17 894.82 316.304 896.258 316.28 897.716 316.285 899.049 316.161 900.454 315.86 901.882 315.568 903.154 315.191 904.487 314.617 905.815 314.073 906.995 313.437 908.176 312.625 909.39 311.817 910.412 310.971 911.449 309.93 912.472 308.897 913.284 307.894 914.096 306.676 914.899 305.443 915.516 304.296 916.06 302.953 916.605 301.601 916.987 300.33 917.255 298.896 917.537 297.477 917.666 296.168 917.642 294.729 917.652 293.291 917.508 291.953 917.207 290.515 916.92 289.1 916.519 287.824 915.96 286.491 915.396 285.144 914.765 283.992 913.943 282.778 913.141 281.588 912.29 280.585 911.244 279.567 910.235 278.544 909.203 277.703 907.98 276.92 906.776 276.117 905.595 275.496 904.253 274.97 902.919 274.416 901.629 274.043 900.2 273.771 898.776 273.489 897.472 273.379 896.019 273.403Z" fill="#FFFFFF" transform="matrix(1.0008 0 0 1 98.9773 -785.805)"/><g clip-path="url(#clip4)"><path d="M643.774 1067.01C643.102 1065.59 642.58 1064.12 642.206 1062.6 641.814 1061.07 641.59 1059.54 641.516 1057.97 641.441 1056.41 641.534 1054.84 641.758 1053.29 642.001 1051.74 642.374 1050.23 642.916 1048.75 643.438 1047.28 644.11 1045.88 644.931 1044.53 645.734 1043.19 646.667 1041.94 647.731 1040.78 648.777 1039.63 649.934 1038.58 651.203 1037.65 652.473 1036.71 653.816 1035.93 655.235 1035.26 656.654 1034.6 658.128 1034.08 659.64 1033.71 661.171 1033.34 662.72 1033.11 664.288 1033.04 665.837 1032.98 667.405 1033.06 668.955 1033.3 670.504 1033.54 672.016 1033.91 673.491 1034.46 674.965 1035 676.365 1035.67 677.709 1036.49 679.053 1037.29 680.285 1038.24 681.442 1039.31 682.6 1040.35 683.645 1041.53 684.56 1042.8 685.493 1044.05 686.277 1045.39 686.949 1046.83 687.602 1048.25 688.125 1049.72 688.479 1051.24 688.853 1052.77 689.077 1054.32 689.133 1055.88 689.207 1057.45 689.114 1059 688.871 1060.55 688.629 1062.1 688.237 1063.61 687.695 1065.09 687.154 1066.56 686.463 1067.96 685.661 1069.29 684.84 1070.63 683.888 1071.88 682.824 1073.02 681.76 1074.18 680.602 1075.22 679.333 1076.14 678.064 1077.05 676.72 1077.85 675.282 1078.51 673.883 1079.16 672.408 1079.66 670.896 1080.04 669.384 1080.41 667.853 1080.63 666.304 1080.69 664.736 1080.77 663.187 1080.67 661.656 1080.45 660.107 1080.21 658.614 1079.81 657.139 1079.29 655.683 1078.75 654.283 1078.08 652.958 1077.28 651.633 1076.47 650.382 1075.54 649.243 1074.48 648.086 1073.43 647.059 1072.27 646.126 1071.02 645.211 1069.75 644.427 1068.43 643.774 1067.01" fill="#FFFFFF" transform="matrix(1.0008 0 0 1 98.9773 -785.805)"/></g><g clip-path="url(#clip5)"><path d="M755.024 1015.83C755.696 1017.24 756.219 1018.72 756.592 1020.23 756.965 1021.76 757.189 1023.29 757.264 1024.86 757.339 1026.43 757.264 1028 757.04 1029.55 756.797 1031.1 756.424 1032.61 755.883 1034.08 755.36 1035.56 754.688 1036.96 753.867 1038.3 753.064 1039.64 752.131 1040.89 751.067 1042.05 750.021 1043.21 748.845 1044.25 747.595 1045.19 746.326 1046.12 744.982 1046.92 743.563 1047.58 742.144 1048.25 740.67 1048.77 739.158 1049.15 737.627 1049.52 736.078 1049.74 734.51 1049.8 732.942 1049.87 731.393 1049.78 729.843 1049.56 728.294 1049.31 726.782 1048.92 725.308 1048.38 723.833 1047.86 722.433 1047.17 721.089 1046.36 719.745 1045.54 718.494 1044.61 717.337 1043.55 716.198 1042.48 715.153 1041.32 714.22 1040.05 713.305 1038.79 712.503 1037.44 711.849 1036.02 711.196 1034.6 710.673 1033.13 710.3 1031.6 709.927 1030.09 709.721 1028.54 709.647 1026.97 709.591 1025.4 709.684 1023.85 709.927 1022.3 710.169 1020.75 710.561 1019.24 711.103 1017.77 711.644 1016.29 712.316 1014.89 713.137 1013.55 713.959 1012.22 714.892 1010.97 715.956 1009.82 717.02 1008.66 718.196 1007.63 719.465 1006.72 720.734 1005.78 722.078 1005 723.497 1004.35 724.916 1003.69 726.372 1003.17 727.883 1002.8 729.395 1002.44 730.945 1002.22 732.494 1002.14 734.043 1002.09 735.593 1002.16 737.142 1002.41 738.672 1002.65 740.184 1003.02 741.64 1003.56 743.096 1004.09 744.496 1004.76 745.822 1005.58 747.166 1006.38 748.397 1007.31 749.555 1008.36 750.693 1009.41 751.739 1010.56 752.653 1011.83 753.568 1013.08 754.352 1014.41 755.024 1015.83Z" fill="#FFFFFF" transform="matrix(1.0008 0 0 1 98.9773 -785.805)"/></g><g clip-path="url(#clip6)"><path d="M823.043 984.523C823.715 985.942 824.238 987.417 824.611 988.947 824.984 990.459 825.208 992.008 825.283 993.576 825.358 995.144 825.283 996.694 825.059 998.243 824.816 999.792 824.443 1001.3 823.902 1002.78 823.379 1004.25 822.707 1005.67 821.886 1007.02 821.083 1008.36 820.15 1009.61 819.086 1010.77 818.041 1011.93 816.865 1012.97 815.614 1013.89 814.345 1014.82 813.001 1015.62 811.582 1016.29 810.164 1016.95 808.689 1017.47 807.177 1017.84 805.646 1018.22 804.097 1018.44 802.529 1018.51 800.961 1018.57 799.412 1018.5 797.863 1018.25 796.313 1018.01 794.801 1017.64 793.327 1017.1 791.852 1016.55 790.452 1015.88 789.108 1015.06 787.764 1014.26 786.514 1013.31 785.356 1012.26 784.218 1011.2 783.172 1010.02 782.239 1008.77 781.324 1007.5 780.522 1006.16 779.868 1004.74 779.215 1003.3 778.693 1001.83 778.319 1000.31 777.946 998.784 777.741 997.235 777.666 995.667 777.61 994.118 777.703 992.55 777.946 991 778.189 989.451 778.581 987.939 779.122 986.465 779.663 984.99 780.335 983.59 781.156 982.265 781.978 980.921 782.911 979.67 783.975 978.531 785.039 977.374 786.215 976.329 787.484 975.414 788.754 974.5 790.097 973.697 791.516 973.044 792.935 972.39 794.391 971.886 795.903 971.513 797.415 971.14 798.964 970.916 800.513 970.86 802.062 970.785 803.612 970.878 805.161 971.102 806.692 971.345 808.185 971.737 809.66 972.26 811.115 972.801 812.515 973.473 813.841 974.276 815.185 975.078 816.417 976.012 817.574 977.057 818.713 978.121 819.758 979.278 820.672 980.529 821.587 981.779 822.371 983.123 823.043 984.523Z" fill="#FFFFFF" transform="matrix(1.0008 0 0 1 98.9773 -785.805)"/></g><g clip-path="url(#clip7)"><path d="M305.768 1223.02C305.118 1221.6 304.592 1220.13 304.2 1218.6 303.828 1217.08 303.603 1215.53 303.531 1213.97 303.455 1212.4 303.531 1210.85 303.77 1209.3 303.995 1207.75 304.387 1206.24 304.912 1204.76 305.452 1203.29 306.121 1201.87 306.924 1200.53 307.746 1199.18 308.682 1197.93 309.724 1196.77 310.79 1195.62 311.946 1194.59 313.217 1193.66 314.484 1192.73 315.812 1191.92 317.25 1191.27 318.665 1190.6 320.122 1190.07 321.651 1189.7 323.185 1189.33 324.714 1189.1 326.282 1189.05 327.849 1188.97 329.416 1189.07 330.969 1189.29 332.518 1189.53 334.028 1189.93 335.504 1190.47 336.981 1191.01 338.376 1191.68 339.724 1192.48 341.047 1193.3 342.299 1194.24 343.456 1195.3 344.612 1196.36 345.659 1197.52 346.571 1198.79 347.508 1200.06 348.292 1201.4 348.961 1202.82 349.615 1204.24 350.122 1205.71 350.494 1207.25 350.867 1208.76 351.092 1210.31 351.144 1211.87 351.202 1213.45 351.125 1215.01 350.886 1216.54 350.643 1218.09 350.251 1219.61 349.711 1221.08 349.166 1222.55 348.478 1223.95 347.656 1225.3 346.834 1226.64 345.902 1227.87 344.837 1229.03 343.771 1230.19 342.596 1231.21 341.329 1232.13 340.058 1233.06 338.715 1233.85 337.296 1234.5 335.877 1235.15 334.42 1235.68 332.91 1236.05 331.4 1236.42 329.866 1236.63 328.298 1236.7 326.75 1236.76 325.202 1236.68 323.668 1236.44 322.12 1236.2 320.629 1235.82 319.152 1235.28 317.695 1234.76 316.295 1234.09 314.971 1233.27 313.628 1232.46 312.395 1231.53 311.239 1230.49 310.102 1229.42 309.074 1228.26 308.138 1227.01 307.225 1225.77 306.441 1224.42 305.768 1223.02" fill="#FFFFFF" transform="matrix(1.0008 0 0 1 98.9773 -785.805)"/></g><g clip-path="url(#clip8)"><path d="M417.019 1171.82C417.691 1173.24 418.213 1174.71 418.605 1176.24 418.979 1177.75 419.203 1179.3 419.277 1180.87 419.352 1182.44 419.277 1183.99 419.035 1185.54 418.811 1187.09 418.419 1188.6 417.896 1190.07 417.355 1191.55 416.683 1192.97 415.88 1194.31 415.077 1195.66 414.144 1196.91 413.08 1198.06 412.016 1199.22 410.859 1200.27 409.608 1201.2 408.339 1202.11 406.995 1202.92 405.576 1203.59 404.158 1204.24 402.683 1204.76 401.153 1205.14 399.641 1205.51 398.091 1205.73 396.523 1205.81 394.955 1205.87 393.406 1205.79 391.857 1205.55 390.308 1205.31 388.796 1204.93 387.321 1204.39 385.846 1203.85 384.428 1203.18 383.102 1202.36 381.759 1201.55 380.508 1200.6 379.351 1199.56 378.193 1198.49 377.167 1197.32 376.233 1196.07 375.3 1194.8 374.516 1193.45 373.863 1192.03 373.191 1190.6 372.687 1189.14 372.313 1187.61 371.94 1186.08 371.735 1184.53 371.66 1182.98 371.604 1181.41 371.679 1179.85 371.921 1178.3 372.183 1176.75 372.575 1175.23 373.116 1173.76 373.657 1172.3 374.329 1170.89 375.151 1169.56 375.972 1168.22 376.905 1166.97 377.969 1165.83 379.033 1164.67 380.209 1163.62 381.479 1162.71 382.748 1161.79 384.092 1161.01 385.51 1160.34 386.929 1159.69 388.385 1159.18 389.897 1158.81 391.409 1158.44 392.939 1158.21 394.507 1158.16 396.057 1158.08 397.606 1158.17 399.137 1158.4 400.686 1158.64 402.179 1159.03 403.654 1159.56 405.11 1160.1 406.51 1160.77 407.835 1161.57 409.179 1162.37 410.411 1163.31 411.55 1164.37 412.707 1165.42 413.733 1166.57 414.667 1167.82 415.581 1169.07 416.365 1170.42 417.019 1171.82Z" fill="#FFFFFF" transform="matrix(1.0008 0 0 1 98.9773 -785.805)"/></g><g clip-path="url(#clip9)"><path d="M485.038 1140.53C485.71 1141.95 486.233 1143.43 486.624 1144.94 486.998 1146.47 487.222 1148 487.296 1149.57 487.371 1151.14 487.296 1152.7 487.054 1154.25 486.83 1155.8 486.438 1157.32 485.915 1158.79 485.374 1160.26 484.702 1161.66 483.899 1163.01 483.097 1164.35 482.163 1165.6 481.099 1166.76 480.035 1167.92 478.878 1168.96 477.609 1169.9 476.358 1170.83 475.014 1171.61 473.596 1172.29 472.177 1172.96 470.702 1173.46 469.172 1173.85 467.66 1174.23 466.11 1174.43 464.543 1174.51 462.975 1174.58 461.425 1174.49 459.876 1174.26 458.327 1174.02 456.815 1173.63 455.34 1173.09 453.866 1172.57 452.447 1171.87 451.122 1171.07 449.778 1170.25 448.527 1169.32 447.37 1168.25 446.212 1167.19 445.186 1166.03 444.253 1164.76 443.319 1163.49 442.535 1162.15 441.882 1160.73 441.21 1159.31 440.706 1157.84 440.333 1156.31 439.959 1154.8 439.754 1153.25 439.679 1151.68 439.623 1150.11 439.698 1148.56 439.941 1147.01 440.202 1145.46 440.594 1143.95 441.135 1142.48 441.677 1141 442.349 1139.6 443.17 1138.26 443.991 1136.91 444.924 1135.68 445.988 1134.52 447.052 1133.37 448.228 1132.34 449.498 1131.41 450.767 1130.49 452.111 1129.71 453.53 1129.05 454.948 1128.4 456.404 1127.88 457.916 1127.51 459.428 1127.13 460.959 1126.93 462.527 1126.85 464.076 1126.78 465.625 1126.87 467.156 1127.11 468.705 1127.34 470.198 1127.73 471.673 1128.27 473.129 1128.79 474.529 1129.47 475.854 1130.27 477.179 1131.09 478.43 1132.02 479.569 1133.07 480.726 1134.11 481.753 1135.27 482.686 1136.52 483.601 1137.79 484.385 1139.12 485.038 1140.53Z" fill="#FFFFFF" transform="matrix(1.0008 0 0 1 98.9773 -785.805)"/></g><g clip-path="url(#clip10)"><path d="M553.038 1109.25C553.71 1110.67 554.233 1112.14 554.606 1113.66 554.998 1115.19 555.222 1116.72 555.297 1118.28 555.372 1119.85 555.278 1121.42 555.054 1122.97 554.812 1124.52 554.438 1126.03 553.897 1127.51 553.374 1128.98 552.702 1130.38 551.9 1131.72 551.078 1133.07 550.145 1134.32 549.1 1135.48 548.036 1136.63 546.879 1137.68 545.609 1138.61 544.34 1139.55 543.015 1140.33 541.577 1141 540.159 1141.67 538.703 1142.2 537.172 1142.57 535.642 1142.94 534.111 1143.15 532.543 1143.22 530.975 1143.3 529.407 1143.2 527.858 1142.98 526.309 1142.74 524.797 1142.34 523.322 1141.8 521.847 1141.28 520.447 1140.59 519.103 1139.79 517.76 1138.97 516.528 1138.03 515.37 1136.97 514.213 1135.91 513.168 1134.75 512.253 1133.48 511.32 1132.21 510.536 1130.87 509.864 1129.45 509.21 1128.03 508.688 1126.55 508.333 1125.02 507.96 1123.51 507.736 1121.96 507.68 1120.39 507.605 1118.83 507.698 1117.28 507.941 1115.73 508.184 1114.18 508.576 1112.67 509.117 1111.19 509.658 1109.72 510.349 1108.32 511.152 1106.97 511.973 1105.63 512.925 1104.4 513.989 1103.24 515.053 1102.08 516.21 1101.06 517.479 1100.14 518.749 1099.21 520.093 1098.42 521.53 1097.77 522.93 1097.12 524.405 1096.59 525.917 1096.22 527.429 1095.87 528.959 1095.64 530.508 1095.57 532.076 1095.51 533.607 1095.59 535.156 1095.83 536.687 1096.07 538.199 1096.45 539.655 1096.99 541.129 1097.51 542.511 1098.18 543.855 1099 545.18 1099.8 546.412 1100.74 547.569 1101.78 548.708 1102.83 549.753 1103.99 550.668 1105.26 551.582 1106.51 552.385 1107.83 553.038 1109.25Z" fill="#FFFFFF" transform="matrix(1.0008 0 0 1 98.9773 -785.805)"/></g><g clip-path="url(#clip11)"><path d="M621.02 1077.97C621.692 1079.38 622.215 1080.86 622.588 1082.37 622.98 1083.9 623.204 1085.45 623.279 1087.02 623.353 1088.57 623.279 1090.14 623.036 1091.69 622.812 1093.23 622.42 1094.75 621.879 1096.22 621.356 1097.7 620.684 1099.11 619.882 1100.46 619.06 1101.78 618.127 1103.03 617.082 1104.21 616.018 1105.37 614.86 1106.39 613.591 1107.33 612.341 1108.26 610.997 1109.06 609.578 1109.72 608.141 1110.39 606.685 1110.91 605.154 1111.28 603.642 1111.66 602.093 1111.88 600.525 1111.94 598.957 1112.01 597.389 1111.94 595.84 1111.7 594.29 1111.45 592.778 1111.06 591.304 1110.54 589.848 1110 588.429 1109.32 587.085 1108.5 585.76 1107.68 584.509 1106.75 583.352 1105.68 582.195 1104.64 581.149 1103.46 580.235 1102.19 579.302 1100.94 578.518 1099.6 577.846 1098.16 577.192 1096.74 576.67 1095.27 576.315 1093.76 575.942 1092.23 575.718 1090.68 575.662 1089.11 575.587 1087.54 575.68 1085.99 575.923 1084.44 576.166 1082.89 576.558 1081.38 577.099 1079.91 577.64 1078.43 578.331 1077.03 579.152 1075.69 579.955 1074.36 580.907 1073.11 581.971 1071.96 583.035 1070.82 584.192 1069.77 585.461 1068.86 586.731 1067.92 588.075 1067.14 589.512 1066.49 590.912 1065.83 592.386 1065.31 593.898 1064.96 595.41 1064.58 596.941 1064.36 598.49 1064.28 600.058 1064.23 601.607 1064.3 603.138 1064.54 604.687 1064.79 606.181 1065.16 607.637 1065.7 609.111 1066.22 610.511 1066.9 611.836 1067.72 613.162 1068.52 614.412 1069.45 615.551 1070.5 616.708 1071.56 617.735 1072.7 618.65 1073.97 619.583 1075.22 620.367 1076.57 621.02 1077.97Z" fill="#FFFFFF" transform="matrix(1.0008 0 0 1 98.9773 -785.805)"/></g><g clip-path="url(#clip12)"><path d="M1139.68 1064.54C1139.04 1065.98 1138.28 1067.34 1137.38 1068.63 1136.48 1069.92 1135.48 1071.12 1134.34 1072.2 1133.22 1073.28 1131.99 1074.25 1130.66 1075.09 1129.35 1075.93 1127.95 1076.64 1126.5 1077.22 1125.04 1077.78 1123.53 1078.21 1121.98 1078.49 1120.45 1078.75 1118.88 1078.88 1117.31 1078.84 1115.75 1078.81 1114.2 1078.62 1112.67 1078.28 1111.14 1077.95 1109.66 1077.46 1108.22 1076.83 1106.79 1076.19 1105.42 1075.43 1104.15 1074.53 1102.87 1073.62 1101.67 1072.61 1100.59 1071.47 1099.51 1070.35 1098.55 1069.12 1097.71 1067.79 1096.87 1066.47 1096.17 1065.07 1095.61 1063.61 1095.03 1062.16 1094.62 1060.64 1094.35 1059.09 1094.07 1057.56 1093.96 1056 1094 1054.43 1094.04 1052.86 1094.24 1051.31 1094.58 1049.78 1094.91 1048.25 1095.42 1046.77 1096.05 1045.34 1096.69 1043.9 1097.45 1042.56 1098.35 1041.27 1099.26 1039.98 1100.29 1038.8 1101.43 1037.72 1102.55 1036.66 1103.78 1035.69 1105.11 1034.85 1106.45 1034.03 1107.83 1033.32 1109.31 1032.76 1110.76 1032.2 1112.27 1031.79 1113.82 1031.52 1115.35 1031.26 1116.92 1031.15 1118.49 1031.19 1120.06 1031.23 1121.61 1031.43 1123.12 1031.79 1124.65 1032.12 1126.14 1032.63 1127.56 1033.26 1129 1033.9 1130.34 1034.66 1131.61 1035.56 1132.9 1036.45 1134.06 1037.46 1135.14 1038.58 1136.22 1039.72 1137.17 1040.93 1138.01 1042.24 1138.84 1043.56 1139.55 1044.95 1140.1 1046.4 1140.67 1047.86 1141.08 1049.35 1141.34 1050.88 1141.62 1052.41 1141.73 1053.96 1141.69 1055.51 1141.65 1057.08 1141.47 1058.61 1141.13 1060.14 1140.78 1061.65 1140.29 1063.13 1139.68 1064.54" fill="#FFFFFF" transform="matrix(1.0008 0 0 1 98.9773 -785.805)"/></g><g clip-path="url(#clip13)"><path d="M1027.9 1014.5C1028.52 1013.06 1029.28 1011.7 1030.18 1010.41 1031.08 1009.13 1032.1 1007.95 1033.22 1006.87 1034.36 1005.77 1035.57 1004.81 1036.9 1003.95 1038.23 1003.11 1039.61 1002.41 1041.08 1001.85 1042.54 1001.27 1044.03 1000.84 1045.58 1000.58 1047.13 1000.3 1048.68 1000.17 1050.25 1000.2 1051.81 1000.24 1053.36 1000.43 1054.89 1000.76 1056.43 1001.1 1057.92 1001.58 1059.34 1002.22 1060.77 1002.85 1062.14 1003.62 1063.42 1004.51 1064.71 1005.41 1065.89 1006.44 1066.97 1007.58 1068.05 1008.7 1069.02 1009.93 1069.86 1011.25 1070.7 1012.58 1071.41 1013.98 1071.97 1015.43 1072.53 1016.89 1072.96 1018.4 1073.22 1019.95 1073.49 1021.48 1073.62 1023.05 1073.58 1024.62 1073.52 1026.19 1073.34 1027.74 1073 1029.27 1072.65 1030.8 1072.16 1032.27 1071.53 1033.71 1070.89 1035.15 1070.13 1036.49 1069.21 1037.78 1068.32 1039.05 1067.29 1040.24 1066.15 1041.32 1065.01 1042.39 1063.78 1043.36 1062.45 1044.2 1061.13 1045.02 1059.75 1045.73 1058.27 1046.29 1056.82 1046.85 1055.31 1047.26 1053.76 1047.52 1052.21 1047.78 1050.66 1047.89 1049.09 1047.86 1047.52 1047.82 1045.97 1047.61 1044.44 1047.28 1042.91 1046.92 1041.44 1046.42 1040 1045.79 1038.58 1045.15 1037.24 1044.39 1035.97 1043.49 1034.68 1042.61 1033.5 1041.59 1032.44 1040.47 1031.36 1039.35 1030.4 1038.11 1029.56 1036.81 1028.74 1035.48 1028.03 1034.1 1027.47 1032.64 1026.91 1031.21 1026.5 1029.71 1026.22 1028.16 1025.96 1026.63 1025.85 1025.08 1025.89 1023.54 1025.92 1021.99 1026.11 1020.44 1026.45 1018.92 1026.78 1017.39 1027.27 1015.94 1027.9 1014.5Z" fill="#FFFFFF" transform="matrix(1.0008 0 0 1 98.9773 -785.805)"/></g><g clip-path="url(#clip14)"><path d="M959.567 983.907C960.201 982.47 960.948 981.107 961.844 979.819 962.74 978.531 963.767 977.337 964.887 976.254 966.025 975.172 967.239 974.201 968.564 973.361 969.889 972.521 971.27 971.812 972.745 971.233 974.201 970.673 975.694 970.244 977.244 969.964 978.793 969.702 980.342 969.572 981.91 969.609 983.478 969.646 985.027 969.833 986.558 970.169 988.089 970.505 989.582 970.99 991 971.625 992.438 972.26 993.8 973.025 995.088 973.921 996.376 974.817 997.552 975.844 998.635 976.964 999.717 978.102 1000.69 979.334 1001.53 980.659 1002.37 981.985 1003.08 983.366 1003.64 984.841 1004.2 986.297 1004.63 987.809 1004.89 989.339 1005.15 990.888 1005.28 992.438 1005.24 994.006 1005.21 995.574 1005 997.123 1004.66 998.654 1004.33 1000.18 1003.82 1001.68 1003.19 1003.1 1002.55 1004.53 1001.79 1005.9 1000.87 1007.18 999.979 1008.45 998.952 1009.63 997.814 1010.71 996.675 1011.79 995.443 1012.75 994.118 1013.59 992.792 1014.43 991.411 1015.14 989.936 1015.7 988.48 1016.26 986.969 1016.67 985.419 1016.93 983.889 1017.19 982.321 1017.3 980.753 1017.26 979.185 1017.21 977.635 1017.02 976.105 1016.67 974.574 1016.33 973.1 1015.83 971.662 1015.19 970.244 1014.56 968.9 1013.79 967.63 1012.9 966.343 1012 965.167 1010.99 964.103 1009.87 963.02 1008.73 962.068 1007.52 961.228 1006.21 960.407 1004.89 959.697 1003.51 959.137 1002.05 958.577 1000.59 958.167 999.102 957.887 997.571 957.625 996.04 957.513 994.491 957.551 992.942 957.588 991.374 957.775 989.843 958.111 988.331 958.447 986.801 958.932 985.326 959.567 983.907Z" fill="#FFFFFF" transform="matrix(1.0008 0 0 1 98.9773 -785.805)"/></g><g clip-path="url(#clip15)"><path d="M1479.6 1216.28C1478.97 1217.72 1478.22 1219.08 1477.33 1220.37 1476.43 1221.66 1475.4 1222.83 1474.28 1223.93 1473.15 1225.02 1471.93 1225.99 1470.61 1226.83 1469.28 1227.67 1467.9 1228.38 1466.43 1228.94 1464.97 1229.52 1463.48 1229.94 1461.93 1230.21 1460.38 1230.49 1458.83 1230.6 1457.26 1230.58 1455.69 1230.54 1454.14 1230.36 1452.61 1230.02 1451.08 1229.66 1449.59 1229.18 1448.15 1228.56 1446.73 1227.93 1445.37 1227.16 1444.08 1226.25 1442.79 1225.35 1441.62 1224.34 1440.54 1223.21 1439.45 1222.07 1438.48 1220.84 1437.64 1219.53 1436.8 1218.2 1436.11 1216.8 1435.53 1215.35 1434.97 1213.87 1434.56 1212.38 1434.28 1210.83 1434.02 1209.28 1433.91 1207.73 1433.95 1206.16 1433.98 1204.6 1434.17 1203.05 1434.51 1201.52 1434.86 1199.99 1435.35 1198.51 1435.98 1197.07 1436.62 1195.64 1437.4 1194.27 1438.3 1193 1439.19 1191.72 1440.22 1190.54 1441.36 1189.46 1442.5 1188.38 1443.73 1187.42 1445.05 1186.58 1446.38 1185.74 1447.78 1185.05 1449.23 1184.49 1450.71 1183.93 1452.2 1183.52 1453.75 1183.26 1455.3 1182.98 1456.85 1182.89 1458.42 1182.92 1459.99 1182.96 1461.53 1183.17 1463.07 1183.5 1464.6 1183.86 1466.07 1184.34 1467.51 1185 1468.93 1185.63 1470.27 1186.38 1471.56 1187.27 1472.83 1188.17 1474 1189.2 1475.09 1190.32 1476.15 1191.44 1477.1 1192.67 1477.94 1193.98 1478.78 1195.3 1479.47 1196.68 1480.03 1198.14 1480.59 1199.58 1481.02 1201.07 1481.28 1202.62 1481.54 1204.15 1481.66 1205.7 1481.62 1207.25 1481.58 1208.81 1481.4 1210.35 1481.06 1211.86 1480.72 1213.39 1480.24 1214.86 1479.6 1216.28" fill="#FFFFFF" transform="matrix(1.0008 0 0 1 98.9773 -785.805)"/></g><g clip-path="url(#clip16)"><path d="M1367.83 1166.24C1368.47 1164.8 1369.23 1163.44 1370.13 1162.15 1371.02 1160.86 1372.03 1159.67 1373.17 1158.58 1374.29 1157.5 1375.52 1156.53 1376.85 1155.69 1378.15 1154.85 1379.55 1154.14 1381.01 1153.56 1382.47 1153 1383.98 1152.57 1385.51 1152.29 1387.06 1152.03 1388.63 1151.9 1390.19 1151.94 1391.76 1151.98 1393.31 1152.16 1394.84 1152.5 1396.37 1152.84 1397.85 1153.32 1399.28 1153.96 1400.72 1154.59 1402.08 1155.36 1403.35 1156.25 1404.64 1157.15 1405.84 1158.17 1406.92 1159.29 1408 1160.43 1408.95 1161.66 1409.79 1162.99 1410.63 1164.31 1411.34 1165.7 1411.9 1167.17 1412.48 1168.63 1412.89 1170.14 1413.15 1171.67 1413.43 1173.22 1413.54 1174.77 1413.51 1176.34 1413.47 1177.9 1413.28 1179.45 1412.93 1180.98 1412.59 1182.51 1412.11 1184.01 1411.47 1185.43 1410.84 1186.86 1410.05 1188.23 1409.16 1189.51 1408.24 1190.78 1407.24 1191.96 1406.1 1193.04 1404.96 1194.12 1403.73 1195.08 1402.4 1195.92 1401.08 1196.76 1399.68 1197.47 1398.22 1198.03 1396.74 1198.59 1395.25 1199 1393.7 1199.26 1392.15 1199.52 1390.6 1199.63 1389.04 1199.59 1387.47 1199.54 1385.92 1199.35 1384.39 1199 1382.86 1198.66 1381.38 1198.16 1379.95 1197.52 1378.53 1196.89 1377.16 1196.12 1375.89 1195.23 1374.63 1194.33 1373.45 1193.32 1372.37 1192.2 1371.3 1191.06 1370.35 1189.85 1369.51 1188.54 1368.67 1187.22 1367.98 1185.84 1367.42 1184.38 1366.84 1182.92 1366.43 1181.43 1366.17 1179.9 1365.91 1178.37 1365.78 1176.82 1365.82 1175.27 1365.85 1173.7 1366.04 1172.17 1366.39 1170.66 1366.73 1169.13 1367.22 1167.66 1367.83 1166.24Z" fill="#FFFFFF" transform="matrix(1.0008 0 0 1 98.9773 -785.805)"/></g><g clip-path="url(#clip17)"><path d="M1299.49 1135.64C1300.13 1134.21 1300.89 1132.84 1301.79 1131.56 1302.69 1130.27 1303.69 1129.07 1304.83 1127.99 1305.95 1126.91 1307.19 1125.94 1308.51 1125.1 1309.82 1124.24 1311.22 1123.55 1312.67 1122.97 1314.13 1122.39 1315.64 1121.98 1317.19 1121.7 1318.72 1121.42 1320.29 1121.31 1321.86 1121.35 1323.42 1121.36 1324.97 1121.55 1326.5 1121.91 1328.04 1122.24 1329.51 1122.73 1330.95 1123.36 1332.38 1123.98 1333.75 1124.74 1335.02 1125.66 1336.3 1126.55 1337.5 1127.56 1338.58 1128.7 1339.66 1129.84 1340.62 1131.07 1341.46 1132.4 1342.3 1133.7 1343.01 1135.1 1343.57 1136.56 1344.14 1138.03 1344.55 1139.53 1344.83 1141.08 1345.1 1142.62 1345.21 1144.17 1345.17 1145.74 1345.13 1147.31 1344.95 1148.86 1344.59 1150.39 1344.26 1151.92 1343.77 1153.4 1343.14 1154.83 1342.5 1156.27 1341.72 1157.63 1340.82 1158.9 1339.91 1160.19 1338.9 1161.37 1337.76 1162.45 1336.62 1163.53 1335.39 1164.48 1334.06 1165.32 1332.74 1166.16 1331.34 1166.85 1329.88 1167.41 1328.41 1167.97 1326.92 1168.4 1325.37 1168.66 1323.82 1168.93 1322.27 1169.04 1320.7 1168.98 1319.13 1168.94 1317.58 1168.76 1316.05 1168.4 1314.52 1168.05 1313.05 1167.56 1311.61 1166.91 1310.19 1166.29 1308.83 1165.53 1307.56 1164.63 1306.29 1163.74 1305.11 1162.73 1304.03 1161.59 1302.97 1160.47 1302.01 1159.26 1301.17 1157.93 1300.33 1156.62 1299.64 1155.24 1299.08 1153.79 1298.52 1152.33 1298.09 1150.84 1297.83 1149.31 1297.57 1147.78 1297.44 1146.23 1297.48 1144.66 1297.52 1143.11 1297.7 1141.58 1298.06 1140.05 1298.39 1138.54 1298.88 1137.06 1299.49 1135.64Z" fill="#FFFFFF" transform="matrix(1.0008 0 0 1 98.9773 -785.805)"/></g><g clip-path="url(#clip18)"><path d="M1231.2 1105.05C1231.83 1103.61 1232.58 1102.25 1233.47 1100.96 1234.37 1099.67 1235.4 1098.5 1236.52 1097.4 1237.65 1096.31 1238.87 1095.34 1240.19 1094.5 1241.52 1093.66 1242.9 1092.95 1244.37 1092.38 1245.83 1091.82 1247.32 1091.39 1248.87 1091.11 1250.42 1090.85 1251.97 1090.71 1253.54 1090.75 1255.11 1090.79 1256.66 1090.98 1258.19 1091.31 1259.72 1091.65 1261.21 1092.13 1262.63 1092.77 1264.07 1093.4 1265.43 1094.17 1266.72 1095.06 1268 1095.96 1269.18 1096.99 1270.26 1098.11 1271.35 1099.24 1272.32 1100.48 1273.16 1101.8 1274 1103.13 1274.71 1104.51 1275.27 1105.98 1275.83 1107.44 1276.26 1108.95 1276.52 1110.48 1276.78 1112.03 1276.91 1113.6 1276.87 1115.15 1276.83 1116.72 1276.63 1118.27 1276.29 1119.8 1275.94 1121.33 1275.45 1122.82 1274.82 1124.26 1274.18 1125.68 1273.42 1127.04 1272.5 1128.33 1271.61 1129.6 1270.58 1130.79 1269.44 1131.85 1268.3 1132.94 1267.07 1133.91 1265.75 1134.73 1264.42 1135.57 1263.04 1136.28 1261.57 1136.84 1260.11 1137.4 1258.6 1137.81 1257.05 1138.07 1255.5 1138.33 1253.95 1138.44 1252.38 1138.41 1250.81 1138.35 1249.26 1138.16 1247.73 1137.81 1246.2 1137.47 1244.73 1136.97 1243.29 1136.33 1241.87 1135.7 1240.53 1134.93 1239.26 1134.04 1237.97 1133.14 1236.81 1132.13 1235.73 1131.01 1234.65 1129.88 1233.7 1128.66 1232.88 1127.34 1232.04 1126.03 1231.33 1124.65 1230.77 1123.19 1230.21 1121.74 1229.8 1120.24 1229.53 1118.71 1229.25 1117.18 1229.14 1115.63 1229.18 1114.08 1229.22 1112.52 1229.4 1110.99 1229.74 1109.47 1230.08 1107.94 1230.56 1106.47 1231.2 1105.05Z" fill="#FFFFFF" transform="matrix(1.0008 0 0 1 98.9773 -785.805)"/></g><g clip-path="url(#clip19)"><path d="M1162.9 1074.48C1163.51 1073.04 1164.28 1071.68 1165.17 1070.39 1166.07 1069.1 1167.1 1067.9 1168.22 1066.82 1169.35 1065.74 1170.57 1064.77 1171.89 1063.93 1173.22 1063.07 1174.6 1062.36 1176.07 1061.8 1177.53 1061.22 1179.02 1060.81 1180.57 1060.53 1182.12 1060.25 1183.67 1060.14 1185.24 1060.18 1186.81 1060.2 1188.36 1060.38 1189.89 1060.72 1191.42 1061.07 1192.91 1061.56 1194.33 1062.17 1195.77 1062.81 1197.13 1063.57 1198.42 1064.49 1199.71 1065.38 1200.88 1066.39 1201.96 1067.53 1203.05 1068.67 1204.02 1069.9 1204.86 1071.21 1205.7 1072.53 1206.41 1073.93 1206.97 1075.39 1207.53 1076.86 1207.96 1078.36 1208.22 1079.91 1208.48 1081.46 1208.61 1083.01 1208.57 1084.57 1208.52 1086.14 1208.33 1087.69 1207.99 1089.22 1207.64 1090.75 1207.15 1092.23 1206.52 1093.66 1205.88 1095.1 1205.12 1096.46 1204.2 1097.73 1203.31 1099.02 1202.28 1100.2 1201.14 1101.28 1200 1102.36 1198.77 1103.31 1197.45 1104.15 1196.12 1104.99 1194.74 1105.68 1193.27 1106.24 1191.81 1106.8 1190.3 1107.22 1188.75 1107.5 1187.2 1107.76 1185.65 1107.87 1184.08 1107.81 1182.51 1107.78 1180.97 1107.59 1179.43 1107.23 1177.9 1106.88 1176.43 1106.39 1174.99 1105.74 1173.57 1105.12 1172.23 1104.36 1170.96 1103.46 1169.67 1102.57 1168.5 1101.56 1167.43 1100.42 1166.35 1099.3 1165.4 1098.09 1164.56 1096.76 1163.74 1095.46 1163.03 1094.07 1162.47 1092.62 1161.91 1091.16 1161.5 1089.67 1161.22 1088.14 1160.95 1086.61 1160.84 1085.06 1160.88 1083.49 1160.92 1081.94 1161.1 1080.41 1161.44 1078.88 1161.78 1077.37 1162.26 1075.89 1162.9 1074.48Z" fill="#FFFFFF" transform="matrix(1.0008 0 0 1 98.9773 -785.805)"/></g><g clip-path="url(#clip20)"><path d="M895.971 713.343C856.586 713.343 824.686 745.28 824.686 784.647 824.686 823.995 856.586 855.914 895.971 855.914 935.338 855.914 967.239 823.995 967.239 784.647 967.239 745.28 935.338 713.343 895.971 713.343ZM895.971 819.403C876.82 819.403 861.29 803.892 861.29 784.759 861.29 765.608 876.82 750.096 895.971 750.096 915.104 750.096 930.616 765.608 930.616 784.759 930.616 803.892 915.104 819.403 895.971 819.403Z" fill="#FFFFFF" transform="matrix(1.0008 0 0 1 98.9773 -785.805)"/></g><g><path d="M213.727 1206.57C173.501 1206.57 140.91 1239.18 140.91 1279.39 140.91 1319.58 173.501 1352.17 213.727 1352.17 253.933 1352.17 286.524 1319.58 286.524 1279.39 286.524 1239.18 253.933 1206.57 213.727 1206.57ZM213.727 1314.89C194.164 1314.89 178.298 1299.05 178.298 1279.5 178.298 1259.94 194.164 1244.09 213.727 1244.09 233.27 1244.09 249.117 1259.94 249.117 1279.5 249.117 1299.05 233.27 1314.89 213.727 1314.89Z" fill="#FFFFFF" transform="matrix(1.0008 0 0 1 98.9773 -785.805)"/></g><g clip-path="url(#clip21)"><path d="M897.483 1510.35C857.277 1510.35 824.686 1542.96 824.686 1583.18 824.686 1623.37 857.277 1655.96 897.483 1655.96 937.69 1655.96 970.281 1623.37 970.281 1583.18 970.281 1542.96 937.69 1510.35 897.483 1510.35ZM897.483 1618.68C877.94 1618.68 862.074 1602.84 862.074 1583.27 862.074 1563.73 877.94 1547.88 897.483 1547.88 917.027 1547.88 932.874 1563.73 932.874 1583.27 932.874 1602.84 917.027 1618.68 897.483 1618.68Z" fill="#FFFFFF" transform="matrix(1.0008 0 0 1 98.9773 -785.805)"/></g><g><path d="M1578.91 1206.57C1538.7 1206.57 1506.09 1239.18 1506.09 1279.39 1506.09 1319.58 1538.7 1352.17 1578.91 1352.17 1619.11 1352.17 1651.7 1319.58 1651.7 1279.39 1651.7 1239.18 1619.11 1206.57 1578.91 1206.57ZM1578.91 1314.89C1559.34 1314.89 1543.5 1299.05 1543.5 1279.5 1543.5 1259.94 1559.34 1244.09 1578.91 1244.09 1598.45 1244.09 1614.3 1259.94 1614.3 1279.5 1614.3 1299.05 1598.45 1314.89 1578.91 1314.89Z" fill="#FFFFFF" transform="matrix(1.0008 0 0 1 98.9773 -785.805)"/></g></g></g></g><g clip-path="url(#clip22)"><g clip-path="url(#clip23)"><g clip-path="url(#clip24)"><g><path d="M847.375 173.982C846.572 180.047 847.227 186.131 848.546 191.728 850.248 198.964 853.249 206.195 858.726 212.092 860.49 213.995 862.712 215.944 865.183 217.832L266.429 486.22 856.872 750.885C850.931 757.964 844.971 767.976 842.725 775.078 840.364 782.553 840.947 789.283 842.591 796.327L241.653 526.931C242.833 526.08 243.975 525.148 245.065 524.135 251.799 517.883 259.178 506.093 261.797 497.222 264.111 489.384 263.518 481.25 261.797 473.947 260.091 466.711 256.335 459.275 251.613 453.582 249.056 450.5 246.102 447.537 242.766 445.023ZM234.092 1234.59C226.077 1232.22 215.247 1231.66 207.729 1232.6 200.464 1233.51 194.638 1235.01 188.817 1239.87 188.162 1240.42 187.488 1241.03 186.805 1241.7L186.805 526.424C192.139 529.923 198.022 532.876 202.878 534.32 210.362 536.542 217.722 535.973 224.7 534.32 227.826 533.579 231.009 532.575 234.092 531.218ZM854.965 1552.32C850.281 1558.7 846.047 1566.3 844.178 1572.28 841.564 1580.68 842.395 1589.39 844.178 1597.01 844.379 1597.88 844.599 1598.74 844.838 1599.59L243.206 1329.89C244.477 1329.14 245.744 1328.24 247.005 1327.16 254.399 1320.84 265.191 1305.94 268.101 1295.88 268.694 1293.82 269.043 1291.77 269.201 1289.73ZM872.472 833.381C876.558 835.566 880.639 837.32 884.186 838.362 892.263 840.727 900.158 840.082 907.461 838.362 911.648 837.372 915.834 835.958 919.758 833.874L919.758 1542.3C917.311 1540.62 914.678 1539.19 911.825 1538.09 903.705 1534.97 891.144 1534.13 882.733 1535.18 878.995 1535.65 875.64 1536.28 872.472 1537.43ZM1525.56 1288.6C1525.81 1290.07 1526.11 1291.52 1526.46 1292.97 1528.14 1300.06 1531.16 1307.44 1536.64 1313.34 1541.17 1318.22 1548.52 1323.42 1555.66 1326.92L940.061 1602.88C940.697 1601.36 941.232 1599.88 941.648 1598.47 943.961 1590.63 943.464 1582.79 941.648 1575.19 940.008 1568.34 936.381 1560.65 932.094 1554.64ZM1558.14 527.762C1562.07 530.004 1566.01 531.834 1569.37 532.867 1576.95 535.189 1584.21 534.52 1591.19 532.867 1595.99 531.724 1600.91 529.975 1605.43 527.27L1605.43 1242.17C1601.4 1239.34 1596.98 1236.96 1592.65 1235.51 1584.26 1232.69 1573.12 1232.82 1565.01 1234.05 1562.59 1234.42 1560.32 1234.81 1558.14 1235.36ZM1525.8 486.22 928.165 218.325C934.808 211.992 941.982 200.445 944.558 191.728 946.264 185.945 946.389 179.994 945.648 174.34L1549.57 445.066C1549.38 445.238 1549.19 445.41 1549.01 445.582 1542.27 451.833 1534.89 463.624 1532.28 472.494 1529.96 480.332 1530.72 488.605 1532.28 495.77 1533.76 502.618 1535.89 508.965 1541 514.681 1544.11 518.146 1548.95 521.999 1554.14 525.334L945.304 798.273C946.609 791.82 945.992 785.488 944.558 779.442 942.876 772.349 939.545 765.219 934.374 759.077 932.878 757.299 931.143 755.454 929.236 753.638Z" fill="#FFFFFF" transform="matrix(1.00063 0 0 1 3019.98 734.242)"/></g><path d="M849.746 174.297C848.943 180.076 849.579 185.73 850.874 191.183 852.513 198.232 855.228 204.923 860.48 210.467 862.153 212.284 864.227 214.095 866.636 215.935L869.829 218.368 272.269 486.22 860.743 750.001 858.702 752.42C852.872 759.345 847.136 768.947 845.005 775.8 842.692 782.811 843.303 788.91 844.919 795.782L846.023 800.485 236.888 527.413 240.257 524.99C241.38 524.183 242.408 523.346 243.44 522.386 249.973 516.373 257.018 505.123 259.503 496.544 261.773 489.131 261.162 481.613 259.47 474.497 257.864 467.524 254.346 460.575 249.773 455.107 247.292 452.106 244.534 449.334 241.328 446.93L238.087 444.502 850.334 170.039ZM247.259 445.63C249.529 447.646 250.819 448.894 253.453 452.058 258.323 457.975 262.318 465.899 264.125 473.397 264.899 476.724 265.444 480.299 265.607 483.969L860.667 217.24C859.305 216.064 858.827 215.706 856.977 213.717 851.271 207.466 847.982 199.695 846.219 192.277 844.876 186.533 844.522 182.805 844.685 177.81ZM265.597 488.467C265.449 491.616 264.976 494.795 264.091 497.901 261.339 507.063 253.625 519.394 246.69 525.884 246.441 526.114 246.288 526.262 246.193 526.348L839.37 792.265C838.491 786.515 838.036 782.295 840.445 774.357 842.806 767.006 847.696 758.805 853.077 751.803ZM233.413 1236.88C225.675 1234.56 215.333 1234.04 208.025 1234.97 200.909 1235.85 195.704 1237.08 190.351 1241.7 189.735 1242.22 189.123 1242.77 188.473 1243.41L184.415 1247.36 184.415 521.994 188.114 524.426C193.329 527.858 198.897 530.663 203.556 532.03 210.611 534.205 217.354 533.617 224.151 531.992 227.19 531.275 230.168 530.343 233.131 529.029L236.481 527.547 236.481 1237.8ZM231.702 534.735C229.542 535.51 228.462 535.882 225.25 536.647 218.09 538.329 210.114 538.879 202.199 536.609 197.147 535.089 193.63 533.283 189.195 530.706L189.195 1236.05C189.195 1236.05 186.59 1238.62 187.283 1238.04 193.572 1232.94 200.02 1231.17 207.433 1230.23 215.161 1229.28 223.845 1229.76 231.702 1231.51ZM856.891 1553.74C852.289 1559.99 848.231 1567.23 846.458 1572.99 843.896 1580.93 844.747 1589.01 846.505 1596.47 846.701 1597.31 846.907 1598.13 847.136 1598.95L848.522 1603.86 238.011 1330.18 241.987 1327.84C243.177 1327.13 244.276 1326.36 245.452 1325.34 252.655 1319.23 263.073 1304.91 265.807 1295.21 266.366 1293.29 266.672 1291.48 266.816 1289.54L267.069 1286.16 858.645 1551.35ZM271.155 1293.22C270.959 1294.34 271.022 1294.35 270.395 1296.54 267.308 1306.97 256.143 1322.45 248.559 1328.97 248.305 1329.19 248.133 1329.34 248.019 1329.43L841.157 1595.33C841.157 1595.33 842.056 1598.44 841.85 1597.55 840.039 1589.77 839.231 1580.44 841.898 1571.57 843.863 1565.36 847.246 1559.3 851.337 1553.32ZM873.6 831.274C877.595 833.415 881.447 835.073 884.86 836.067 892.502 838.39 899.786 837.731 906.911 836.034 910.988 835.078 914.893 833.769 918.635 831.761L922.148 829.883 922.148 1546.86 918.406 1544.27C916.064 1542.66 913.679 1541.36 910.964 1540.33 903.193 1537.28 891.211 1536.51 883.029 1537.55 879.363 1538.01 876.271 1538.58 873.289 1539.68L870.082 1540.87 870.082 829.391ZM874.861 1534.2C877.28 1533.57 878.627 1533.29 882.437 1532.81 891.078 1531.75 904.216 1532.66 912.685 1535.86 915.677 1537.03 915.863 1537.22 917.369 1538.05L917.369 837.649C914.296 838.954 912.307 839.666 908.011 840.689 900.531 842.434 892.024 843.064 883.512 840.656 879.832 839.566 877.882 838.691 874.861 837.258ZM1527.92 1288.21C1528.15 1289.63 1528.44 1291 1528.78 1292.42 1530.41 1299.34 1533.14 1306.17 1538.39 1311.71 1542.74 1316.43 1549.74 1321.37 1556.71 1324.77L1561.3 1327.01 935.516 1607.54 937.858 1601.96C938.469 1600.5 938.962 1599.13 939.354 1597.79 941.624 1590.37 941.108 1583.14 939.325 1575.75 937.767 1569.13 934.326 1561.85 930.149 1556.03L928.447 1553.66 1527.41 1285.15ZM935.659 1555.66C939.358 1561.46 942.25 1567.55 943.97 1574.64 945.82 1582.43 946.298 1590.89 943.942 1599.15 943.502 1600.62 944.592 1598.23 944.592 1598.23L1550.25 1326.73C1544.37 1323.32 1539.6 1320 1534.89 1314.96 1529.18 1308.7 1525.87 1300.79 1524.13 1293.52 1523.78 1292.04 1523.9 1292.52 1523.79 1292.01ZM1559.32 525.688C1563.17 527.882 1566.87 529.607 1570.07 530.582 1577.19 532.857 1583.83 532.169 1590.64 530.544 1595.32 529.435 1599.9 527.825 1604.2 525.22L1607.81 523.026 1607.81 1246.77 1604.05 1244.12C1600.14 1241.37 1596.03 1239.14 1591.89 1237.77 1583.89 1235.02 1573.32 1235.19 1565.36 1236.41 1562.98 1236.78 1560.81 1237.15 1558.72 1237.68L1555.75 1238.43 1555.75 527.232 941.997 802.373 942.962 797.799C944.248 791.701 943.641 785.88 942.231 779.992 940.63 773.128 937.547 766.495 932.543 760.616 931.095 758.886 929.446 757.137 927.587 755.368L925.006 752.917 1519.96 486.22 923.926 219.042 926.516 216.594C932.968 210.496 939.822 199.475 942.264 191.049 943.923 185.581 944.009 180.123 943.277 174.651L942.713 170.407 1553.9 444.387 1551.17 446.844C1550.99 447.001 1550.82 447.159 1550.63 447.331 1544.1 453.343 1537.05 464.594 1534.57 473.168 1532.3 480.562 1533.08 488.242 1534.61 495.263 1536.06 501.987 1537.91 507.79 1542.78 513.085 1545.75 516.416 1550.34 520.058 1555.43 523.322L1557.42 524.598ZM1560.53 1232.39C1561.88 1232.13 1562.21 1232.06 1564.65 1231.69 1572.93 1230.44 1584.63 1230.37 1593.41 1233.24 1597.92 1234.77 1599.9 1235.91 1603.04 1237.78L1603.04 531.251C1599.33 533.02 1596.67 534.014 1591.75 535.189 1584.6 536.872 1576.72 537.522 1568.67 535.151 1565.16 534.062 1563.38 533.192 1560.53 531.753ZM1528.5 484.811C1528.38 480.519 1528.77 476.093 1529.98 471.82 1532.73 462.654 1545.24 445.744 1545.24 445.744L948.386 178.188C948.606 182.843 948.606 186.308 946.852 192.406 944.142 201.415 938.34 210.697 932.237 217.531ZM1528.65 487.563 933.379 754.398C934.393 755.459 934.66 755.713 936.199 757.538 941.543 763.943 945.122 771.566 946.886 778.892 948.343 785.096 948.659 789.015 948.243 794.334L1549.25 524.904C1545.32 522.094 1542.48 519.876 1539.23 516.278 1533.86 510.141 1531.46 503.249 1529.94 496.276 1529.35 493.552 1528.88 490.613 1528.65 487.563Z" fill="#FFFFFF" transform="matrix(1.00063 0 0 1 3019.98 734.242)"/><g><path d="M896.143 271.059C897.711 271.04 899.261 271.171 900.81 271.47 902.341 271.768 903.835 272.198 905.291 272.795 906.747 273.374 908.129 274.102 909.436 274.961 910.761 275.82 911.975 276.809 913.076 277.911 914.196 279.012 915.204 280.207 916.082 281.495 916.959 282.802 917.706 284.165 918.322 285.621 918.92 287.059 919.386 288.552 919.704 290.083 920.021 291.633 920.189 293.182 920.189 294.75 920.208 296.319 920.059 297.868 919.76 299.399 919.461 300.948 919.013 302.442 918.434 303.898 917.837 305.354 917.109 306.717 916.25 308.043 915.372 309.35 914.402 310.544 913.3 311.665 912.18 312.785 910.985 313.774 909.678 314.652 908.39 315.529 907.009 316.276 905.571 316.873 904.115 317.489 902.621 317.938 901.091 318.255 899.56 318.572 898.01 318.722 896.442 318.722 894.874 318.74 893.305 318.591 891.775 318.274 890.225 317.975 888.732 317.527 887.294 316.929 885.838 316.332 884.456 315.604 883.149 314.726 881.843 313.868 880.648 312.878 879.528 311.777 878.426 310.656 877.437 309.462 876.559 308.155 875.682 306.848 874.954 305.485 874.337 304.029 873.74 302.573 873.292 301.098 872.975 299.548 872.676 298.017 872.527 296.468 872.527 294.9 872.508 293.331 872.657 291.782 872.956 290.27 873.255 288.739 873.703 287.245 874.281 285.808 874.879 284.352 875.607 282.989 876.466 281.682 877.325 280.394 878.295 279.18 879.397 278.079 880.498 276.977 881.674 275.988 882.981 275.11 884.27 274.251 885.632 273.505 887.07 272.907 888.507 272.291 889.982 271.843 891.513 271.526 893.044 271.227 894.575 271.059 896.143 271.059" fill="#FFFFFF" transform="matrix(1.00063 0 0 1 3019.98 734.242)"/></g><path d="M896.115 268.67C897.797 268.656 899.594 268.809 901.267 269.124 902.902 269.449 904.608 269.941 906.185 270.577 907.757 271.213 909.335 272.044 910.74 272.957 912.169 273.894 913.564 275.031 914.754 276.207 915.949 277.392 917.115 278.778 918.066 280.164 918.998 281.56 919.859 283.137 920.528 284.705 921.163 286.244 921.699 287.959 922.043 289.604 922.377 291.262 922.569 293.045 922.578 294.737 922.592 296.433 922.42 298.211 922.105 299.855 921.78 301.518 921.259 303.253 920.647 304.807 919.997 306.369 919.142 307.961 918.234 309.376 917.292 310.771 916.169 312.152 914.989 313.357 913.789 314.552 912.417 315.684 911.017 316.631 909.626 317.572 908.039 318.428 906.496 319.078 904.918 319.737 903.207 320.253 901.578 320.593 899.914 320.932 898.132 321.104 896.454 321.114 894.762 321.123 892.965 320.951 891.307 320.617 889.644 320.292 887.933 319.775 886.379 319.14 884.821 318.49 883.235 317.653 881.82 316.712 880.41 315.775 879.019 314.623 877.824 313.452 876.654 312.258 875.526 310.891 874.575 309.486 873.638 308.076 872.787 306.489 872.128 304.936 871.492 303.373 870.976 301.662 870.627 300.008 870.316 298.359 870.144 296.591 870.135 294.909 870.125 293.212 870.297 291.439 870.612 289.809 870.937 288.165 871.454 286.44 872.07 284.901 872.72 283.333 873.561 281.756 874.479 280.356 875.397 278.984 876.52 277.588 877.705 276.389 878.885 275.218 880.248 274.076 881.658 273.12 883.034 272.212 884.592 271.356 886.14 270.706 887.703 270.042 889.419 269.526 891.054 269.181 892.683 268.866 895.685 268.713 895.685 268.713 895.785 268.699 896.502 273.421 896.602 273.406 896.602 273.406 893.419 273.588 891.981 273.87 890.561 274.162 889.323 274.534 888.009 275.103 886.69 275.648 885.51 276.288 884.31 277.096 883.11 277.894 882.112 278.735 881.089 279.768 880.071 280.771 879.253 281.799 878.455 283.003 877.657 284.212 877.036 285.369 876.491 286.717 875.951 288.05 875.573 289.312 875.301 290.727 875.019 292.122 874.89 293.432 874.914 294.87 874.909 296.323 875.033 297.661 875.315 299.076 875.607 300.515 875.984 301.762 876.544 303.11 877.112 304.462 877.729 305.619 878.541 306.823 879.349 308.033 880.185 309.041 881.218 310.088 882.255 311.115 883.259 311.947 884.463 312.731 885.658 313.543 886.848 314.169 888.2 314.719 889.524 315.273 890.796 315.656 892.225 315.928 893.63 316.224 894.973 316.358 896.411 316.334 897.869 316.339 899.202 316.215 900.608 315.914 902.037 315.622 903.308 315.245 904.641 314.671 905.97 314.126 907.15 313.491 908.331 312.678 909.545 311.87 910.568 311.025 911.605 309.983 912.628 308.95 913.44 307.947 914.253 306.728 915.055 305.495 915.672 304.348 916.217 303.005 916.762 301.652 917.144 300.381 917.412 298.947 917.694 297.528 917.823 296.218 917.799 294.78 917.808 293.341 917.665 292.003 917.364 290.564 917.077 289.15 916.676 287.873 916.116 286.54 915.552 285.192 914.922 284.04 914.1 282.826 913.297 281.636 912.446 280.633 911.399 279.615 910.391 278.592 909.358 277.751 908.135 276.967 906.931 276.164 905.75 275.543 904.407 275.017 903.074 274.463 901.783 274.09 900.354 273.817 898.93 273.535 897.625 273.426 896.172 273.449Z" fill="#FFFFFF" transform="matrix(1.00063 0 0 1 3019.98 734.242)"/><g><path d="M896.143 393.529C894.575 393.548 893.025 393.417 891.476 393.119 889.926 392.839 888.433 392.391 886.977 391.812 885.52 391.214 884.139 390.486 882.832 389.627 881.525 388.769 880.312 387.798 879.191 386.696 878.071 385.595 877.082 384.4 876.186 383.093 875.308 381.805 874.562 380.424 873.945 378.986 873.348 377.53 872.881 376.055 872.564 374.505 872.247 372.974 872.078 371.425 872.078 369.857 872.06 368.289 872.209 366.739 872.508 365.189 872.807 363.659 873.236 362.165 873.833 360.709 874.431 359.253 875.159 357.871 876.018 356.564 876.895 355.257 877.866 354.044 878.967 352.924 880.069 351.822 881.282 350.814 882.571 349.937 883.878 349.059 885.259 348.331 886.697 347.715 888.153 347.118 889.646 346.651 891.177 346.333 892.708 346.035 894.258 345.867 895.826 345.867 897.394 345.867 898.962 346.016 900.493 346.315 902.024 346.613 903.536 347.062 904.974 347.659 906.43 348.256 907.811 348.984 909.118 349.862 910.425 350.721 911.62 351.71 912.74 352.812 913.842 353.932 914.831 355.127 915.709 356.434 916.586 357.74 917.314 359.122 917.93 360.559 918.528 362.016 918.976 363.509 919.293 365.04 919.592 366.571 919.741 368.139 919.741 369.707 919.76 371.257 919.61 372.806 919.312 374.337 919.013 375.868 918.565 377.343 917.986 378.781 917.389 380.237 916.679 381.6 915.821 382.907 914.962 384.195 913.972 385.408 912.871 386.51 911.788 387.611 910.593 388.601 909.305 389.478 908.017 390.356 906.635 391.084 905.216 391.681 903.779 392.297 902.285 392.745 900.773 393.063 899.242 393.361 897.693 393.529 896.143 393.529Z" fill="#FFFFFF" transform="matrix(1.00063 0 0 1 3019.98 734.242)"/></g><g><path d="M896.143 468.43C894.575 468.43 893.025 468.3 891.476 468.001 889.926 467.721 888.433 467.273 886.977 466.694 885.52 466.097 884.139 465.387 882.832 464.51 881.525 463.651 880.312 462.68 879.191 461.579 878.071 460.477 877.082 459.282 876.186 457.976 875.308 456.687 874.562 455.306 873.945 453.868 873.348 452.431 872.881 450.937 872.564 449.406 872.247 447.857 872.078 446.307 872.078 444.739 872.06 443.171 872.209 441.621 872.508 440.072 872.807 438.541 873.236 437.047 873.833 435.591 874.431 434.135 875.159 432.753 876.018 431.447 876.895 430.14 877.866 428.926 878.967 427.806 880.069 426.705 881.282 425.696 882.571 424.819 883.878 423.96 885.259 423.213 886.697 422.597 888.153 422 889.646 421.533 891.177 421.235 892.708 420.917 894.258 420.749 895.826 420.749 897.394 420.749 898.962 420.898 900.493 421.197 902.024 421.496 903.536 421.944 904.974 422.541 906.43 423.139 907.811 423.867 909.118 424.744 910.425 425.603 911.62 426.593 912.74 427.713 913.842 428.814 914.831 430.009 915.709 431.316 916.586 432.623 917.314 434.004 917.93 435.442 918.528 436.898 918.976 438.392 919.293 439.922 919.592 441.472 919.741 443.022 919.741 444.59 919.76 446.139 919.61 447.689 919.312 449.22 919.013 450.751 918.565 452.225 917.986 453.682 917.389 455.119 916.679 456.482 915.821 457.789 914.962 459.077 913.972 460.291 912.871 461.392 911.788 462.494 910.593 463.483 909.305 464.361 908.017 465.238 906.635 465.966 905.216 466.582 903.779 467.18 902.285 467.628 900.773 467.945 899.242 468.262 897.693 468.412 896.143 468.43Z" fill="#FFFFFF" transform="matrix(1.00063 0 0 1 3019.98 734.242)"/></g><g><path d="M896.143 543.276C894.575 543.294 893.025 543.163 891.476 542.865 889.926 542.566 888.433 542.137 886.977 541.539 885.52 540.961 884.139 540.232 882.832 539.374 881.525 538.515 880.312 537.525 879.191 536.443 878.071 535.341 877.082 534.128 876.186 532.839 875.308 531.533 874.562 530.17 873.945 528.732 873.348 527.276 872.881 525.782 872.564 524.252 872.247 522.721 872.078 521.171 872.078 519.603 872.06 518.035 872.209 516.485 872.508 514.936 872.807 513.405 873.236 511.892 873.833 510.455 874.431 508.999 875.159 507.617 876.018 506.31 876.895 505.004 877.866 503.79 878.967 502.67 880.069 501.55 881.282 500.56 882.571 499.683 883.878 498.805 885.259 498.059 886.697 497.461 888.153 496.864 889.646 496.397 891.177 496.08 892.708 495.781 894.258 495.613 895.826 495.613 897.394 495.613 898.962 495.744 900.493 496.061 902.024 496.36 903.536 496.808 904.974 497.405 906.43 498.003 907.811 498.731 909.118 499.608 910.425 500.467 911.62 501.456 912.74 502.558 913.842 503.678 914.831 504.873 915.709 506.18 916.586 507.487 917.314 508.849 917.93 510.306 918.528 511.762 918.976 513.255 919.293 514.786 919.592 516.317 919.741 517.867 919.741 519.435 919.76 521.003 919.61 522.553 919.312 524.065 919.013 525.596 918.565 527.089 917.986 528.527 917.389 529.964 916.661 531.346 915.802 532.634 914.943 533.941 913.972 535.136 912.871 536.256 911.788 537.357 910.593 538.347 909.305 539.224 907.998 540.083 906.635 540.83 905.198 541.427 903.779 542.025 902.285 542.491 900.773 542.809 899.242 543.107 897.693 543.276 896.143 543.276Z" fill="#FFFFFF" transform="matrix(1.00063 0 0 1 3019.98 734.242)"/></g><g><path d="M896.143 618.121C894.575 618.139 893.025 618.009 891.476 617.71 889.926 617.43 888.433 616.982 886.977 616.403 885.52 615.806 884.139 615.077 882.832 614.219 881.525 613.36 880.312 612.389 879.191 611.288 878.071 610.186 877.082 608.991 876.186 607.684 875.308 606.396 874.562 605.015 873.945 603.577 873.348 602.121 872.881 600.646 872.564 599.097 872.247 597.566 872.078 596.016 872.078 594.448 872.06 592.88 872.209 591.33 872.508 589.781 872.807 588.25 873.236 586.756 873.833 585.3 874.431 583.844 875.159 582.462 876.018 581.155 876.895 579.849 877.866 578.635 878.967 577.515 880.069 576.413 881.282 575.405 882.571 574.528 883.878 573.65 885.259 572.922 886.697 572.306 888.153 571.709 889.646 571.242 891.177 570.925 892.708 570.626 894.258 570.458 895.826 570.458 897.394 570.458 898.962 570.607 900.493 570.906 902.024 571.205 903.536 571.653 904.974 572.25 906.43 572.848 907.811 573.576 909.118 574.453 910.425 575.312 911.62 576.301 912.74 577.403 913.842 578.523 914.831 579.718 915.709 581.025 916.586 582.332 917.314 583.713 917.93 585.151 918.528 586.607 918.976 588.1 919.293 589.631 919.592 591.162 919.741 592.73 919.741 594.299 919.76 595.848 919.61 597.398 919.312 598.929 919.013 600.459 918.565 601.934 917.986 603.372 917.389 604.828 916.679 606.191 915.821 607.498 914.962 608.786 913.972 609.999 912.871 611.101 911.788 612.202 910.593 613.192 909.305 614.069 908.017 614.947 906.635 615.675 905.216 616.272 903.779 616.888 902.285 617.336 900.773 617.654 899.242 617.953 897.693 618.121 896.143 618.121Z" fill="#FFFFFF" transform="matrix(1.00063 0 0 1 3019.98 734.242)"/></g><g><path d="M895.546 496.378C897.114 496.36 898.682 496.509 900.213 496.789 901.763 497.088 903.256 497.536 904.712 498.115 906.169 498.712 907.55 499.421 908.857 500.28 910.164 501.158 911.377 502.128 912.497 503.23 913.618 504.331 914.607 505.526 915.503 506.833 916.381 508.121 917.127 509.503 917.725 510.94 918.341 512.378 918.808 513.871 919.125 515.402 919.442 516.952 919.592 518.501 919.61 520.07 919.61 521.638 919.48 523.187 919.181 524.737 918.882 526.268 918.434 527.761 917.837 529.218 917.258 530.674 916.53 532.055 915.653 533.362 914.794 534.669 913.804 535.882 912.703 536.984 911.601 538.104 910.406 539.094 909.1 539.971 907.793 540.849 906.43 541.595 904.974 542.193 903.536 542.809 902.043 543.257 900.512 543.574 898.962 543.892 897.413 544.041 895.844 544.041 894.276 544.06 892.727 543.91 891.196 543.612 889.646 543.294 888.153 542.846 886.697 542.249 885.259 541.651 883.878 540.923 882.571 540.064 881.264 539.187 880.05 538.197 878.949 537.096 877.829 535.994 876.839 534.781 875.98 533.474 875.103 532.186 874.356 530.804 873.759 529.348 873.161 527.911 872.713 526.417 872.396 524.868 872.097 523.337 871.929 521.787 871.929 520.219 871.929 518.651 872.078 517.12 872.377 515.589 872.676 514.058 873.105 512.565 873.703 511.127 874.281 509.689 875.01 508.308 875.868 507.02 876.727 505.713 877.717 504.518 878.799 503.398 879.901 502.296 881.096 501.307 882.384 500.43 883.691 499.571 885.054 498.824 886.491 498.227 887.91 497.629 889.404 497.162 890.934 496.864 892.447 496.546 893.996 496.378 895.546 496.378" fill="#FFFFFF" transform="matrix(1.00063 0 0 1 3019.98 734.242)"/></g><g><path d="M895.546 618.867C893.978 618.867 892.428 618.737 890.897 618.438 889.348 618.158 887.854 617.71 886.398 617.131 884.942 616.534 883.56 615.824 882.253 614.947 880.946 614.088 879.733 613.117 878.613 612.016 877.493 610.914 876.484 609.719 875.607 608.413 874.73 607.124 873.983 605.743 873.367 604.305 872.751 602.868 872.303 601.374 871.985 599.843 871.668 598.294 871.5 596.744 871.481 595.176 871.481 593.608 871.63 592.058 871.91 590.509 872.209 588.978 872.657 587.484 873.255 586.028 873.852 584.572 874.58 583.19 875.439 581.884 876.298 580.577 877.287 579.363 878.389 578.262 879.49 577.142 880.685 576.152 881.992 575.275 883.299 574.397 884.662 573.65 886.118 573.034 887.555 572.437 889.049 571.97 890.598 571.671 892.129 571.354 893.679 571.186 895.247 571.186 896.815 571.186 898.365 571.335 899.914 571.634 901.445 571.933 902.939 572.381 904.395 572.978 905.851 573.576 907.214 574.304 908.521 575.181 909.828 576.04 911.041 577.029 912.143 578.15 913.263 579.251 914.252 580.465 915.13 581.753 916.007 583.06 916.735 584.441 917.333 585.879 917.949 587.335 918.397 588.828 918.696 590.359 919.013 591.909 919.162 593.458 919.162 595.027 919.162 596.576 919.032 598.126 918.733 599.657 918.434 601.188 917.986 602.662 917.407 604.119 916.81 605.556 916.082 606.919 915.223 608.226 914.364 609.514 913.394 610.728 912.292 611.829 911.191 612.93 909.996 613.92 908.708 614.797 907.419 615.675 906.057 616.403 904.619 617.019 903.182 617.616 901.707 618.065 900.176 618.382 898.645 618.699 897.114 618.849 895.546 618.867Z" fill="#FFFFFF" transform="matrix(1.00063 0 0 1 3019.98 734.242)"/></g><g><path d="M895.546 693.75C893.978 693.768 892.428 693.619 890.897 693.339 889.348 693.04 887.854 692.592 886.398 692.013 884.942 691.435 883.56 690.707 882.253 689.848 880.946 688.989 879.733 688 878.613 686.898 877.493 685.797 876.484 684.602 875.607 683.314 874.73 682.007 873.983 680.644 873.367 679.188 872.751 677.75 872.303 676.257 871.985 674.726 871.668 673.176 871.5 671.627 871.481 670.058 871.481 668.49 871.63 666.941 871.91 665.41 872.209 663.86 872.657 662.367 873.255 660.911 873.852 659.454 874.58 658.073 875.439 656.766 876.298 655.459 877.287 654.246 878.389 653.144 879.49 652.024 880.685 651.034 881.992 650.157 883.299 649.28 884.662 648.533 886.118 647.935 887.555 647.319 889.049 646.871 890.598 646.554 892.129 646.236 893.679 646.087 895.247 646.068 896.815 646.068 898.365 646.218 899.914 646.516 901.445 646.815 902.939 647.263 904.395 647.861 905.851 648.458 907.214 649.205 908.521 650.064 909.828 650.941 911.041 651.931 912.143 653.032 913.263 654.134 914.252 655.347 915.13 656.635 916.007 657.942 916.735 659.324 917.333 660.78 917.949 662.217 918.397 663.711 918.696 665.242 919.013 666.791 919.162 668.341 919.162 669.909 919.162 671.477 919.032 673.008 918.733 674.539 918.434 676.07 917.986 677.563 917.407 679.001 916.81 680.439 916.082 681.801 915.223 683.108 914.364 684.415 913.394 685.61 912.292 686.711 911.191 687.832 909.996 688.821 908.708 689.68 907.419 690.557 906.057 691.285 904.619 691.901 903.182 692.499 901.707 692.966 900.176 693.264 898.645 693.582 897.114 693.731 895.546 693.75Z" fill="#FFFFFF" transform="matrix(1.00063 0 0 1 3019.98 734.242)"/></g><g><path d="M213.763 411.545C173.531 411.545 140.934 444.16 140.934 484.374 140.934 524.588 173.531 557.184 213.763 557.184 253.977 557.184 286.573 524.588 286.573 484.374 286.573 444.16 253.977 411.545 213.763 411.545ZM213.763 519.902C194.198 519.902 178.329 504.051 178.329 484.486 178.329 464.939 194.198 449.089 213.763 449.089 233.31 449.089 249.16 464.939 249.16 484.486 249.16 504.051 233.31 519.902 213.763 519.902Z" fill="#FFFFFF" transform="matrix(1.00063 0 0 1 3019.98 734.242)"/></g><g><path d="M896.125 107.908C856.732 107.908 824.827 139.851 824.827 179.225 824.827 218.58 856.732 250.504 896.125 250.504 935.498 250.504 967.404 218.58 967.404 179.225 967.404 139.851 935.498 107.908 896.125 107.908ZM896.125 213.987C876.97 213.987 861.437 198.473 861.437 179.337 861.437 160.182 876.97 144.668 896.125 144.668 915.26 144.668 930.775 160.182 930.775 179.337 930.775 198.473 915.26 213.987 896.125 213.987Z" fill="#FFFFFF" transform="matrix(1.00063 0 0 1 3019.98 734.242)"/></g><g><path d="M896.125 713.464C856.732 713.464 824.827 745.408 824.827 784.781 824.827 824.136 856.732 856.06 896.125 856.06 935.498 856.06 967.404 824.136 967.404 784.781 967.404 745.408 935.498 713.464 896.125 713.464ZM896.125 819.543C876.97 819.543 861.437 804.029 861.437 784.893 861.437 765.738 876.97 750.224 896.125 750.224 915.26 750.224 930.775 765.738 930.775 784.893 930.775 804.029 915.26 819.543 896.125 819.543Z" fill="#FFFFFF" transform="matrix(1.00063 0 0 1 3019.98 734.242)"/></g><g><path d="M1579.18 411.545C1538.96 411.545 1506.35 444.16 1506.35 484.374 1506.35 524.588 1538.96 557.184 1579.18 557.184 1619.39 557.184 1651.99 524.588 1651.99 484.374 1651.99 444.16 1619.39 411.545 1579.18 411.545ZM1579.18 519.902C1559.61 519.902 1543.76 504.051 1543.76 484.486 1543.76 464.939 1559.61 449.089 1579.18 449.089 1598.72 449.089 1614.57 464.939 1614.57 484.486 1614.57 504.051 1598.72 519.902 1579.18 519.902Z" fill="#FFFFFF" transform="matrix(1.00063 0 0 1 3019.98 734.242)"/></g></g></g></g></g></svg>